<svg id="Layer_1" data-name="Layer 1" xmlns="http://www.w3.org/2000/svg" viewBox="0 0 996.91 1100.38"><defs><style>.cls-1{fill:#ff9600;}.cls-2{fill:#3c3f6b;}</style></defs><path class="cls-1" d="M345.52,551.68c0,106.54,82.73,193.7,187.45,200.89L996.91,274.65H767.58c1.43,1.17,2.91,2.26,4.32,3.46C739,311.37,706.66,342.65,676,375.45A83.29,83.29,0,0,1,662.82,387,200.37,200.37,0,0,0,547,350.26C435.7,350.26,345.52,440.44,345.52,551.68Z"/><path class="cls-2" d="M861.13,728.14c-151.52,228-415.21,204.57-544.95,87.12C168.69,681.75,156.59,462.88,291,306.72,377.19,206.49,524,173.32,651.87,212.89V7.82Q574.48-4.94,487.25,3.19C224,28,10.67,260.43.39,524.33c-12.36,317.58,269.21,633.93,648.12,567,136.1-24,247.75-91.75,331.77-202.35,5.83-7.68,8.62-26.64,3.69-32.11C944.56,813.15,903,771.4,861.13,728.14Z"/></svg>